<?xml-stylesheet href="./UFO.css" type="text/css"?>
<svg xmlns="http://www.w3.org/2000/svg" viewBox="0 0 311 888.28"><defs><style>.cls-2,.cls-4,.cls-6{fill:none}.cls-2,.cls-3{stroke:#232323}.cls-2,.cls-3,.cls-4,.cls-6{stroke-miterlimit:10}.cls-2,.cls-3,.cls-6{stroke-width:3px}.cls-3{fill:#fff}.cls-4{stroke:#213035;stroke-width:2px}.cls-6{stroke:#122023;stroke-linecap:round}</style></defs><g id="Layer_2" data-name="Layer 2"><g id="UFO"><path id="Beam" d="M156.25 165.48L6.48 888.28l300.76-2.59z" fill="#29b3d3" opacity=".3"/><path class="cls-2" d="M77.36 135.6a67.76 67.76 0 015.27-24.69 215.59 215.59 0 0072.81 12.41 215.57 215.57 0 0073-13 80.07 80.07 0 015.18 25.31 207.3 207.3 0 01-76.49 15.31 207.35 207.35 0 01-79.77-15.34z"/><path id="Bottom" class="cls-3" d="M81.74 186.24c4.38 4.94 30.61 33.56 73.23 33.94 43.06.4 69.9-28.32 74.29-33.18z"/><ellipse id="Saucer" class="cls-3" cx="155.5" cy="150.93" rx="154" ry="45.5"/><path class="cls-4" d="M233.64 135.46L276 180.52M180.6 148.77q5.21 23.23 10.4 46.44M77.36 135.24l-44.23 43.31M131.35 149.51q-5.49 23.46-11 46.92"/><g id="Lights"><circle id="Light5" class="cls-2" cx="269.89" cy="141.24" r="9.68"/><circle id="Light4" class="cls-2" cx="223.95" cy="165.48" r="9.68"/><circle id="Light3" class="cls-2" cx="155.5" cy="173.07" r="9.68"/><circle id="Light2" class="cls-2" cx="84.87" cy="165.48" r="9.68"/><circle id="Light1" class="cls-2" cx="44.92" cy="139.09" r="9.68"/></g><g id="Antena"><path fill="#aae1f6" stroke="#213035" stroke-width="3" stroke-miterlimit="10" d="M155.5 11.21v49.5"/><circle class="cls-3" cx="155.5" cy="60.71" r="12.52"/><circle class="cls-3" cx="155.5" cy="11.21" r="9.71"/></g><path id="Top" class="cls-3" d="M77.36 135.6c1.58-41.55 34.82-74.81 74.57-76.6 42.27-1.91 79.94 32.32 81.71 76.6A207.16 207.16 0 01157 150.92a207.12 207.12 0 01-79.64-15.32z"/><path id="glare2" class="cls-6" d="M129.26 77.78c-.36.16-.73.32-1.09.5a55.32 55.32 0 00-20.06 16.06"/><path id="glare1" class="cls-6" d="M147.54 73.23a55.76 55.76 0 00-12 2.22"/></g></g></svg>